<svg xmlns="http://www.w3.org/2000/svg" viewBox="0 0 300 400" width="300" height="400" role="img">
<title>Delega senza firma e senza documento allegato</title>
<rect width="300" height="400" fill="#f3efe8"/>
<rect x="30" y="50" width="220" height="300" rx="4" stroke="#cfc6b8" stroke-width="2" fill="#fff"/><text x="140" y="84" font-family="Arial, sans-serif" font-size="20" font-weight="bold" fill="#333" text-anchor="middle">DELEGA</text><rect x="48" y="106" width="170" height="8" rx="4.0" fill="#c9c4bc"/><rect x="48" y="122" width="140" height="8" rx="4.0" fill="#c9c4bc"/><rect x="48" y="138" width="180" height="8" rx="4.0" fill="#c9c4bc"/><rect x="48" y="154" width="120" height="8" rx="4.0" fill="#c9c4bc"/><rect x="48" y="170" width="160" height="8" rx="4.0" fill="#c9c4bc"/><rect x="48" y="186" width="170" height="8" rx="4.0" fill="#c9c4bc"/><rect x="48" y="202" width="100" height="8" rx="4.0" fill="#c9c4bc"/><text x="48" y="262" font-family="Arial, sans-serif" font-size="11" fill="#555" text-anchor="start">Firma</text><rect x="90" y="280" width="140" height="2" rx="1.0" fill="#777"/><ellipse cx="160" cy="272" rx="82" ry="24" fill="none" stroke="#b3121e" stroke-width="4"/><circle cx="262" cy="38" r="22" fill="#b3121e"/><path d="M253 29 l18 18 M271 29 l-18 18" stroke="#fff" stroke-width="5" stroke-linecap="round"/>
<text x="150" y="215" text-anchor="middle" font-family="Arial, sans-serif" font-size="46" font-weight="bold" fill="#b3121e" fill-opacity="0.16" transform="rotate(-35 150 200)">FAC-SIMILE</text>
</svg>