<svg xmlns="http://www.w3.org/2000/svg" viewBox="0 0 300 400" width="300" height="400" role="img">
<title>Documento con riflesso e sfocato, non leggibile</title><defs><filter id="b"><feGaussianBlur stdDeviation="1.6"/></filter></defs>
<rect width="300" height="400" fill="#f3efe8"/>
<g filter="url(#b)"><g><rect x="20" y="118" width="260" height="165" rx="4" stroke="#cfc6b8" stroke-width="2" fill="#eef4fb"/><rect x="20" y="118" width="260" height="26.400000000000002" rx="4" fill="#9db8d9"/><rect x="32" y="157.6" width="70.2" height="108.9" fill="#dfe6ee"/><svg x="32" y="157.6" width="70.2" height="108.9" viewBox="0 0 100 130"><path d="M12 115 q0 -38 38 -40 q38 2 38 40 z" fill="#2f5fa8"/><ellipse cx="50" cy="55" rx="22" ry="27" fill="#e8b896"/><path d="M28 49 q0 -26 22 -24 q22 -2 22 24 q-6 -14 -22 -14 q-16 0 -22 14z" fill="#5a3a22"/></svg><rect x="114.2" y="167.5" width="117.0" height="8" rx="4.0" fill="#c9c4bc"/><rect x="114.2" y="187.3" width="91.0" height="8" rx="4.0" fill="#c9c4bc"/><rect x="114.2" y="207.1" width="130.0" height="8" rx="4.0" fill="#c9c4bc"/><rect x="114.2" y="226.9" width="78.0" height="8" rx="4.0" fill="#c9c4bc"/><rect x="114.2" y="246.7" width="104.0" height="8" rx="4.0" fill="#c9c4bc"/></g></g><ellipse cx="190" cy="185" rx="80" ry="42" fill="#fff" opacity=".9"/><ellipse cx="190" cy="185" rx="50" ry="24" fill="#fff"/><ellipse cx="190" cy="185" rx="92" ry="54" fill="none" stroke="#b3121e" stroke-width="4"/><circle cx="262" cy="70" r="22" fill="#b3121e"/><path d="M253 61 l18 18 M271 61 l-18 18" stroke="#fff" stroke-width="5" stroke-linecap="round"/>
<text x="150" y="215" text-anchor="middle" font-family="Arial, sans-serif" font-size="46" font-weight="bold" fill="#b3121e" fill-opacity="0.16" transform="rotate(-35 150 200)">FAC-SIMILE</text>
</svg>