<svg xmlns="http://www.w3.org/2000/svg" viewBox="0 0 300 400" width="300" height="400" role="img">
<title>Documento fotografato fronte e retro</title>
<rect width="300" height="400" fill="#f3efe8"/>
<text x="30" y="58" font-family="Arial, sans-serif" font-size="13" font-weight="bold" fill="#555" text-anchor="start">FRONTE</text><g><rect x="30" y="66" width="240" height="150" rx="4" stroke="#cfc6b8" stroke-width="2" fill="#eef4fb"/><rect x="30" y="66" width="240" height="24.0" rx="4" fill="#9db8d9"/><rect x="42" y="102.0" width="64.80000000000001" height="99.0" fill="#dfe6ee"/><svg x="42" y="102.0" width="64.80000000000001" height="99.0" viewBox="0 0 100 130"><path d="M12 115 q0 -38 38 -40 q38 2 38 40 z" fill="#2f5fa8"/><ellipse cx="50" cy="55" rx="22" ry="27" fill="#e8b896"/><path d="M28 49 q0 -26 22 -24 q22 -2 22 24 q-6 -14 -22 -14 q-16 0 -22 14z" fill="#5a3a22"/></svg><rect x="118.80000000000001" y="111.0" width="108.0" height="8" rx="4.0" fill="#c9c4bc"/><rect x="118.80000000000001" y="129.0" width="84.0" height="8" rx="4.0" fill="#c9c4bc"/><rect x="118.80000000000001" y="147.0" width="120.0" height="8" rx="4.0" fill="#c9c4bc"/><rect x="118.80000000000001" y="165.0" width="72.0" height="8" rx="4.0" fill="#c9c4bc"/><rect x="118.80000000000001" y="183.0" width="96.0" height="8" rx="4.0" fill="#c9c4bc"/></g><text x="30" y="250" font-family="Arial, sans-serif" font-size="13" font-weight="bold" fill="#555" text-anchor="start">RETRO</text><g><rect x="30" y="258" width="240" height="130" rx="4" stroke="#cfc6b8" stroke-width="2" fill="#eef4fb"/><rect x="30" y="258" width="240" height="20.8" rx="4" fill="#9db8d9"/><rect x="44" y="297.0" width="144.0" height="8" rx="4.0" fill="#c9c4bc"/><rect x="44" y="310.0" width="108.0" height="8" rx="4.0" fill="#c9c4bc"/><rect x="44" y="323.0" width="168.0" height="8" rx="4.0" fill="#c9c4bc"/><rect x="44" y="336.0" width="120.0" height="8" rx="4.0" fill="#c9c4bc"/><rect x="40" y="355.5" width="220" height="20.8" fill="#d9dde3"/></g><circle cx="262" cy="30" r="22" fill="#18733a"/><path d="M251 30 l7 8 l14 -16" stroke="#fff" stroke-width="5" fill="none" stroke-linecap="round" stroke-linejoin="round"/>
<text x="150" y="215" text-anchor="middle" font-family="Arial, sans-serif" font-size="46" font-weight="bold" fill="#b3121e" fill-opacity="0.16" transform="rotate(-35 150 200)">FAC-SIMILE</text>
</svg>