<svg xmlns="http://www.w3.org/2000/svg" viewBox="0 0 300 400" width="300" height="400" role="img">
<title>Verbale completo: tutte le pagine, articolo 381 evidenziato</title>
<rect width="300" height="400" fill="#f3efe8"/>
<rect x="60" y="70" width="220" height="300" rx="4" stroke="#cfc6b8" stroke-width="2" fill="#fff"/><rect x="50" y="60" width="220" height="300" rx="4" stroke="#cfc6b8" stroke-width="2" fill="#fff"/><rect x="40" y="50" width="220" height="300" rx="4" stroke="#cfc6b8" stroke-width="2" fill="#fff"/><text x="150" y="90" font-family="Arial, sans-serif" font-size="20" font-weight="bold" fill="#333" text-anchor="middle">VERBALE</text><text x="150" y="108" font-family="Arial, sans-serif" font-size="11" fill="#555" text-anchor="middle">Pagina 1 di 3</text><rect x="60" y="130" width="160" height="8" rx="4.0" fill="#c9c4bc"/><rect x="60" y="146" width="130" height="8" rx="4.0" fill="#c9c4bc"/><rect x="60" y="162" width="170" height="8" rx="4.0" fill="#c9c4bc"/><rect x="60" y="178" width="110" height="8" rx="4.0" fill="#c9c4bc"/><rect x="54" y="196" width="192" height="22" rx="4" fill="#18733a" fill-opacity=".15" stroke="#18733a" stroke-width="2"/><text x="150" y="212" font-family="Arial, sans-serif" font-size="12" font-weight="bold" fill="#18733a" text-anchor="middle">art. 381 DPR 495/1992</text><rect x="60" y="232" width="170" height="8" rx="4.0" fill="#c9c4bc"/><rect x="60" y="248" width="140" height="8" rx="4.0" fill="#c9c4bc"/><rect x="60" y="264" width="120" height="8" rx="4.0" fill="#c9c4bc"/><g transform="rotate(-12 200 310)"><rect x="150" y="292" width="100" height="32" rx="4" fill="none" stroke="#7a2a8a" stroke-width="3"/><text x="200" y="314" font-family="Arial, sans-serif" font-size="15" font-weight="bold" fill="#7a2a8a" text-anchor="middle">OMISSIS</text></g><circle cx="262" cy="38" r="22" fill="#18733a"/><path d="M251 38 l7 8 l14 -16" stroke="#fff" stroke-width="5" fill="none" stroke-linecap="round" stroke-linejoin="round"/>
<text x="150" y="215" text-anchor="middle" font-family="Arial, sans-serif" font-size="46" font-weight="bold" fill="#b3121e" fill-opacity="0.16" transform="rotate(-35 150 200)">FAC-SIMILE</text>
</svg>