<svg xmlns="http://www.w3.org/2000/svg" viewBox="0 0 320 240" role="img" aria-labelledby="t"><title id="t">Mappa schematica dell'ufficio con fermata del tram</title><g stroke="#2a2522" stroke-width="2.5" stroke-linejoin="round" stroke-linecap="round"><rect x="8" y="8" width="304" height="224" rx="18" fill="#f3efe8"/><path d="M8 80H312M8 170H312M90 8V232M220 8V232" fill="none" stroke="#fffdf8" stroke-width="16"/><path d="M8 80H312M8 170H312M90 8V232M220 8V232" fill="none" stroke="#d8c6a8" stroke-width="2"/><path d="M20 170H300" fill="none" stroke="#e8a33d" stroke-width="3" stroke-dasharray="8 6"/><g transform="translate(6 6)" stroke="none" fill-opacity=".12"><path d="M76 154V154M64.96000000000001 128L87.03999999999999 128" fill="none"/><rect x="30" y="154" width="92" height="28" rx="16" fill="#2a2522"/><rect x="30" y="173.0" width="92" height="3.4" fill="#2a2522" stroke-width="1.5"/><rect x="44.0" y="166" width="22.0" height="10.1" rx="4" fill="#2a2522"/><rect x="76.0" y="166" width="22.0" height="10.1" rx="4" fill="#2a2522"/><circle cx="46.6" cy="182" r="8" fill="#2a2522"/><circle cx="105.4" cy="182" r="8" fill="#2a2522"/></g><path d="M76 154V154M64.96000000000001 128L87.03999999999999 128" fill="none"/><rect x="30" y="154" width="92" height="28" rx="16" fill="#e8a33d"/><rect x="30" y="173.0" width="92" height="3.4" fill="#fffdf8" stroke-width="1.5"/><rect x="44.0" y="166" width="22.0" height="10.1" rx="4" fill="#cfe0e3"/><rect x="76.0" y="166" width="22.0" height="10.1" rx="4" fill="#cfe0e3"/><circle cx="46.6" cy="182" r="8" fill="#2a2522"/><circle cx="105.4" cy="182" r="8" fill="#2a2522"/><g transform="translate(6 6)" stroke="none" fill-opacity=".12"><path d="M220 128c-22-28-34-42-34-58a34 34 0 0 1 68 0c0 16-12 30-34 58Z" fill="#2a2522"/><circle cx="220" cy="70" r="12" fill="#2a2522"/></g><path d="M220 128c-22-28-34-42-34-58a34 34 0 0 1 68 0c0 16-12 30-34 58Z" fill="#a50e2b"/><circle cx="220" cy="70" r="12" fill="#fffdf8"/><rect x="120" y="96" width="60" height="50" rx="4" fill="#e9dcc7"/><rect x="250" y="190" width="50" height="34" rx="4" fill="#e9dcc7"/></g></svg>