<svg xmlns="http://www.w3.org/2000/svg" viewBox="0 0 320 240" role="img" aria-labelledby="t"><title id="t">Il modulo online con un campo da compilare evidenziato</title><g stroke="#2a2522" stroke-width="2.5" stroke-linejoin="round" stroke-linecap="round"><rect x="8" y="8" width="304" height="224" rx="18" fill="#f3efe8"/><g transform="translate(6 6)" stroke="none" fill-opacity=".12"><rect x="40" y="30" width="240" height="180" rx="10" fill="#2a2522"/><path d="M40 56h240" fill="none"/></g><rect x="40" y="30" width="240" height="180" rx="10" fill="#fffdf8"/><path d="M40 56h240" fill="none"/><circle cx="56" cy="43" r="4" fill="#a50e2b" stroke="none"/><circle cx="70" cy="43" r="4" fill="#e8a33d" stroke="none"/><circle cx="84" cy="43" r="4" fill="#6f8f72" stroke="none"/><path d="M60 76h70" fill="none" stroke="#2a2522" stroke-width="3" stroke-opacity=".55"/><rect x="60" y="84" width="200" height="22" rx="4" fill="#f3efe8" /><path d="M60 120h70" fill="none" stroke="#2a2522" stroke-width="3" stroke-opacity=".55"/><rect x="60" y="128" width="200" height="22" rx="4" fill="#f6dfe3" stroke="#a50e2b" stroke-width="3"/><path d="M60 164h70" fill="none" stroke="#2a2522" stroke-width="3" stroke-opacity=".55"/><rect x="60" y="172" width="200" height="22" rx="4" fill="#f3efe8" /><g transform="translate(6 6)" stroke="none" fill-opacity=".12"><path d="M232 150v-26a7 7 0 0 1 14 0v20l18 3a8 8 0 0 1 7 9l-4 24h-30l-12-18a7 7 0 0 1 10-9Z" fill="#2a2522"/><path d="M246 146v14M256 148v12" fill="none" stroke="#fffdf8" stroke-width="2"/></g><path d="M232 150v-26a7 7 0 0 1 14 0v20l18 3a8 8 0 0 1 7 9l-4 24h-30l-12-18a7 7 0 0 1 10-9Z" fill="#a50e2b"/><path d="M246 146v14M256 148v12" fill="none" stroke="#fffdf8" stroke-width="2"/></g></svg>